<?xml version="1.0" encoding="utf-8"?>
<!-- Generator: Adobe Illustrator 21.0.0, SVG Export Plug-In . SVG Version: 6.00 Build 0)  -->
<svg version="1.1" id="Layer_1" xmlns="http://www.w3.org/2000/svg" xmlns:xlink="http://www.w3.org/1999/xlink" x="0px" y="0px"
	 viewBox="0 0 179.9 37.3" style="enable-background:new 0 0 179.9 37.3;" xml:space="preserve">
<style type="text/css">
	.st0{fill:#FFFFFF;}
</style>
<g>
	<g>
		<g>
			<polygon class="st0" points="33.2,10 6.6,10 10.7,13.7 35.8,13.7 			"/>
			<polygon class="st0" points="28.7,17 2.2,17 6.2,20.8 31.3,20.8 			"/>
			<polygon class="st0" points="35.8,23.5 13.9,23.5 17.2,27.3 38,27.3 			"/>
		</g>
	</g>
	<g>
		<path class="st0" d="M45,32.2l9.3-13.9l-9-13.6h6.4l5.9,9.2l5.8-9.2h6.4l-9,13.6L70,32.2h-6.4l-6.1-9.5l-6.1,9.5H45z"/>
		<path class="st0" d="M78.6,15.5v7.6c0,0.8,0,1.5,0,2.2c0,0.6,0.1,1.2,0.4,1.5c0.5,0.7,1.2,1.1,2.2,1.2c1,0.1,2.1,0,3.4-0.2v4.3
			c-1.4,0.3-2.8,0.4-4.2,0.4c-1.4,0-2.6-0.3-3.7-0.7c-1.1-0.5-1.9-1.2-2.5-2.2c-0.5-0.9-0.8-1.9-0.8-2.9c0-1,0-2.1,0-3.3v-7.9h-3.5
			v-4h3.5V5.7h5.2v5.7h6v4H78.6z"/>
		<path class="st0" d="M100.5,11.5v4.9c-0.6-0.2-1.2-0.2-2-0.2c-0.8,0.1-1.4,0.2-2.1,0.5c-0.6,0.3-1.1,0.7-1.5,1.1
			c-0.4,0.5-0.7,1-1,1.7c-0.2,0.6-0.3,1.3-0.3,2.1v10.6h-5.2V11.5H93v3.3c0.2-0.3,0.4-0.6,0.6-0.9c0.5-0.6,1-1.1,1.7-1.5
			c0.5-0.3,1-0.5,1.6-0.7c0.6-0.2,1.2-0.3,1.8-0.3C99.3,11.4,99.9,11.4,100.5,11.5z"/>
		<path class="st0" d="M121.9,23.3c0.2-2.5,0-4.7-0.8-6.5c-0.7-1.9-1.9-3.3-3.4-4.3c-1.5-1-3.4-1.5-5.5-1.5c-2,0-3.9,0.5-5.4,1.4
			c-1.6,0.9-2.8,2.2-3.7,3.9c-0.9,1.7-1.3,3.6-1.3,5.9c0,2.1,0.5,3.9,1.4,5.5c0.9,1.6,2.2,2.9,3.8,3.8c1.6,0.9,3.5,1.4,5.6,1.4
			c2,0,3.8-0.5,5.5-1.6c1.7-1.1,2.9-2.5,3.7-4.4l-5.2-1.5c-0.4,0.8-0.9,1.5-1.7,1.9c-0.7,0.5-1.6,0.7-2.6,0.7
			c-1.6,0-2.8-0.5-3.7-1.6c-0.6-0.8-1-1.8-1.2-3H121.9z M107.5,19.4c0.2-1,0.5-1.8,1-2.4c0.8-1.1,2.1-1.6,3.9-1.6
			c1.5,0,2.6,0.5,3.3,1.4c0.4,0.6,0.7,1.5,0.9,2.6H107.5z"/>
		<path class="st0" d="M154.9,18.6v13.6h-5.2V19.9c0-1.4-0.3-2.4-1-3.2c-0.7-0.8-1.5-1.1-2.7-1.1c-0.7,0-1.4,0.2-1.9,0.5
			c-0.5,0.3-0.9,0.8-1.2,1.4c-0.3,0.6-0.5,1.3-0.5,2.1v12.5h-5.2V19.9c0-1.4-0.3-2.4-1-3.2c-0.7-0.8-1.5-1.1-2.7-1.1
			c-1.1,0-2,0.4-2.6,1.1c-0.7,0.7-1,1.7-1,2.9v12.5h-5.2V11.5h4.6v2.3c0.6-0.7,1.3-1.3,2.2-1.8c1.2-0.6,2.4-0.9,3.8-0.9
			c1.6,0,3,0.3,4,1c0.9,0.6,1.5,1.3,2,2.2c0.7-1,1.5-1.7,2.6-2.3c1.1-0.6,2.4-0.9,3.8-0.9c2.4,0,4.1,0.7,5.4,2.1
			C154.3,14.5,154.9,16.3,154.9,18.6z"/>
		<path class="st0" d="M177.7,23.3c0.2-2.5,0-4.7-0.8-6.5c-0.7-1.9-1.9-3.3-3.4-4.3c-1.5-1-3.4-1.5-5.5-1.5c-2,0-3.8,0.5-5.4,1.4
			c-1.6,0.9-2.8,2.2-3.7,3.9c-0.9,1.7-1.3,3.6-1.3,5.9c0,2.1,0.5,3.9,1.4,5.5c0.9,1.6,2.2,2.9,3.8,3.8c1.6,0.9,3.5,1.4,5.6,1.4
			c2,0,3.8-0.5,5.5-1.6c1.7-1.1,2.9-2.5,3.7-4.4l-5.2-1.5c-0.4,0.8-0.9,1.5-1.7,1.9c-0.7,0.5-1.6,0.7-2.6,0.7
			c-1.6,0-2.8-0.5-3.7-1.6c-0.6-0.8-1-1.8-1.2-3H177.7z M163.3,19.4c0.2-1,0.5-1.8,1-2.4c0.8-1.1,2.1-1.6,3.9-1.6
			c1.5,0,2.6,0.5,3.3,1.4c0.4,0.6,0.7,1.5,0.9,2.6H163.3z"/>
	</g>
</g>
</svg>
